<?xml version="1.0" encoding="UTF-8" standalone="no"?>
<!-- Created with Inkscape (http://www.inkscape.org/) -->

<svg
   xmlns:dc="http://purl.org/dc/elements/1.1/"
   xmlns:cc="http://creativecommons.org/ns#"
   xmlns:rdf="http://www.w3.org/1999/02/22-rdf-syntax-ns#"
   xmlns:svg="http://www.w3.org/2000/svg"
   xmlns="http://www.w3.org/2000/svg"
   xmlns:xlink="http://www.w3.org/1999/xlink"
   xmlns:sodipodi="http://sodipodi.sourceforge.net/DTD/sodipodi-0.dtd"
   xmlns:inkscape="http://www.inkscape.org/namespaces/inkscape"
   width="189.41248mm"
   height="63.411999mm"
   viewBox="0 0 189.41247 63.411998"
   version="1.1"
   id="svg8"
   inkscape:version="0.92.2 2405546, 2018-03-11"
   sodipodi:docname="characters.svg">
  <defs
     id="defs2" />
  <sodipodi:namedview
     id="base"
     pagecolor="#ffffff"
     bordercolor="#666666"
     borderopacity="1.0"
     inkscape:pageopacity="0.0"
     inkscape:pageshadow="2"
     inkscape:zoom="0.96383568"
     inkscape:cx="168.50595"
     inkscape:cy="135.99342"
     inkscape:document-units="mm"
     inkscape:current-layer="g951"
     showgrid="false"
     inkscape:snap-global="false"
     inkscape:snap-bbox="true"
     inkscape:window-width="1920"
     inkscape:window-height="1023"
     inkscape:window-x="0"
     inkscape:window-y="0"
     inkscape:window-maximized="1"
     fit-margin-top="0"
     fit-margin-left="0"
     fit-margin-right="0"
     fit-margin-bottom="0" />
  <metadata
     id="metadata5">
    <rdf:RDF>
      <cc:Work
         rdf:about="">
        <dc:format>image/svg+xml</dc:format>
        <dc:type
           rdf:resource="http://purl.org/dc/dcmitype/StillImage" />
        <dc:title></dc:title>
      </cc:Work>
    </rdf:RDF>
  </metadata>
  <g
     inkscape:label="Layer 1"
     inkscape:groupmode="layer"
     id="layer1"
     transform="translate(-18.069408,-4.2246351)">
    <rect
       ry="0.73058069"
       y="4.2246351"
       x="18.069408"
       height="63.411999"
       width="189.41248"
       id="rect866"
       style="opacity:1;fill:#87d1ee;fill-opacity:1;stroke:none;stroke-width:0.89999998;stroke-linecap:round;stroke-linejoin:miter;stroke-miterlimit:4;stroke-dasharray:none;stroke-dashoffset:0;stroke-opacity:1;paint-order:fill markers stroke" />
    <g
       id="g1077"
       transform="matrix(0.736291,0,0,0.736291,-21.037945,-55.307582)">
      <g
         transform="translate(10.725136,-0.13725541)"
         id="g1056">
        <circle
           style="opacity:1;fill:#66342d;fill-opacity:1;stroke:none;stroke-width:8.36499977;stroke-linecap:round;stroke-linejoin:round;stroke-miterlimit:4;stroke-dasharray:none;stroke-dashoffset:0;stroke-opacity:1;paint-order:fill markers stroke"
           id="path1050"
           cx="70.617912"
           cy="124.53857"
           r="7.2059088" />
        <circle
           r="3.3627572"
           cy="124.53857"
           cx="70.617912"
           id="circle1052"
           style="opacity:1;fill:#311a12;fill-opacity:1;stroke:none;stroke-width:8.36499977;stroke-linecap:round;stroke-linejoin:round;stroke-miterlimit:4;stroke-dasharray:none;stroke-dashoffset:0;stroke-opacity:1;paint-order:fill markers stroke" />
      </g>
      <use
         height="100%"
         width="100%"
         transform="translate(47.313904)"
         id="use1058"
         xlink:href="#g1056"
         y="0"
         x="0" />
      <rect
         ry="23.196165"
         y="91.391396"
         x="81.803833"
         height="65.608086"
         width="46.39233"
         id="rect1017"
         style="opacity:1;fill:#66342d;fill-opacity:1;stroke:none;stroke-width:8.36499977;stroke-linecap:round;stroke-linejoin:round;stroke-miterlimit:4;stroke-dasharray:none;stroke-dashoffset:0;stroke-opacity:1;paint-order:fill markers stroke" />
      <g
         transform="translate(16.8134)"
         id="g1042">
        <g
           id="g1034"
           transform="matrix(0.53623192,0,0,0.53623192,64.06048,64.607854)">
          <circle
             r="9.470624"
             cy="104.97968"
             cx="25.666761"
             id="path1019"
             style="opacity:1;fill:#ffffff;fill-opacity:1;stroke:none;stroke-width:8.36499977;stroke-linecap:round;stroke-linejoin:round;stroke-miterlimit:4;stroke-dasharray:none;stroke-dashoffset:0;stroke-opacity:1;paint-order:fill markers stroke" />
          <circle
             style="opacity:1;fill:#0f2437;fill-opacity:1;stroke:none;stroke-width:8.36499977;stroke-linecap:round;stroke-linejoin:round;stroke-miterlimit:4;stroke-dasharray:none;stroke-dashoffset:0;stroke-opacity:1;paint-order:fill markers stroke"
             id="circle1021"
             cx="25.666761"
             cy="104.97968"
             r="3.8362548" />
        </g>
        <rect
           style="opacity:1;fill:#000000;fill-opacity:1;stroke:none;stroke-width:8.36499977;stroke-linecap:round;stroke-linejoin:round;stroke-miterlimit:4;stroke-dasharray:none;stroke-dashoffset:0;stroke-opacity:1;paint-order:fill markers stroke"
           id="rect1036"
           width="13.039264"
           height="5.4902163"
           x="70.823792"
           y="112.66599"
           ry="2.7451081" />
      </g>
      <use
         height="100%"
         width="100%"
         transform="matrix(-1,0,0,1,210,0)"
         id="use1044"
         xlink:href="#g1042"
         y="0"
         x="0" />
      <rect
         ry="3.9117794"
         y="125.15623"
         x="101.01998"
         height="14.960839"
         width="7.8235583"
         id="rect1046"
         style="opacity:1;fill:#311a12;fill-opacity:1;stroke:none;stroke-width:8.36499977;stroke-linecap:round;stroke-linejoin:round;stroke-miterlimit:4;stroke-dasharray:none;stroke-dashoffset:0;stroke-opacity:1;paint-order:fill markers stroke" />
      <rect
         transform="rotate(-90)"
         style="opacity:1;fill:#311a12;fill-opacity:1;stroke:none;stroke-width:8.36499977;stroke-linecap:round;stroke-linejoin:round;stroke-miterlimit:4;stroke-dasharray:none;stroke-dashoffset:0;stroke-opacity:1;paint-order:fill markers stroke"
         id="rect1048"
         width="6.3137531"
         height="14.960838"
         x="-137.37196"
         y="97.45134"
         ry="3.9117792" />
      <path
         sodipodi:nodetypes="cc"
         inkscape:connector-curvature="0"
         id="path1060"
         d="m 114.31661,143.3815 c -5.14542,5.14543 -13.48779,5.14543 -18.633218,1e-5"
         style="opacity:1;fill:none;fill-opacity:1;stroke:#d0ad9a;stroke-width:4.14400005;stroke-linecap:round;stroke-linejoin:round;stroke-miterlimit:4;stroke-dasharray:none;stroke-dashoffset:0;stroke-opacity:1;paint-order:fill markers stroke" />
    </g>
    <g
       id="g929"
       transform="matrix(0.35144836,0,0,0.35144836,132.70998,-8.4007992)">
      <use
         height="100%"
         width="100%"
         transform="translate(98.383533)"
         id="use880"
         xlink:href="#g878"
         y="0"
         x="0" />
      <g
         id="g878">
        <g
           style="fill:#e3482c"
           transform="translate(20.815845,14.364026)"
           id="g861">
          <circle
             style="opacity:1;fill:#f8c09d;fill-opacity:1;stroke:none;stroke-width:0.26499999;stroke-linecap:round;stroke-linejoin:round;stroke-miterlimit:4;stroke-dasharray:none;stroke-dashoffset:0;stroke-opacity:1;paint-order:fill markers stroke"
             id="path855"
             cx="34.952202"
             cy="105.02673"
             r="14.558134" />
          <circle
             r="7.5702295"
             cy="105.02673"
             cx="34.952202"
             id="circle857"
             style="opacity:1;fill:#ef937e;fill-opacity:1;stroke:none;stroke-width:0.26499999;stroke-linecap:round;stroke-linejoin:round;stroke-miterlimit:4;stroke-dasharray:none;stroke-dashoffset:0;stroke-opacity:1;paint-order:fill markers stroke" />
        </g>
      </g>
      <rect
         ry="48.333004"
         y="57.081932"
         x="56.666996"
         height="137.04057"
         width="96.666008"
         id="rect815"
         style="opacity:1;fill:#f8c09d;fill-opacity:1;stroke:none;stroke-width:0.26499999;stroke-linecap:round;stroke-linejoin:round;stroke-miterlimit:4;stroke-dasharray:none;stroke-dashoffset:0;stroke-opacity:1;paint-order:fill markers stroke" />
      <g
         transform="translate(49.679088,-69.102612)"
         id="g907">
        <path
           inkscape:connector-curvature="0"
           style="opacity:1;fill:#dd527c;fill-opacity:1;stroke:none;stroke-width:1.00157475;stroke-linecap:round;stroke-linejoin:round;stroke-miterlimit:4;stroke-dasharray:none;stroke-dashoffset:0;stroke-opacity:1;paint-order:fill markers stroke"
           d="m 261.90625,900.35156 a 65.29381,65.29381 0 0 0 -1.67383,-2.33984 65.29381,65.29381 0 0 0 -4.30664,-4.90234 65.29381,65.29381 0 0 0 -4.77539,-4.44922 65.29381,65.29381 0 0 0 -5.19531,-3.95118 65.29381,65.29381 0 0 0 -5.56446,-3.41015 65.29381,65.29381 0 0 0 -5.87695,-2.83985 65.29381,65.29381 0 0 0 -6.13086,-2.23828 65.29381,65.29381 0 0 0 -6.32422,-1.61328 65.29381,65.29381 0 0 0 -6.45312,-0.97656 65.29381,65.29381 0 0 0 -6.51953,-0.32617 65.29381,65.29381 0 0 0 -4.61719,0.16406 65.29381,65.29381 0 0 0 -6.48047,0.78711 65.29381,65.29381 0 0 0 -6.36719,1.42969 65.29381,65.29381 0 0 0 -6.19336,2.05664 65.29381,65.29381 0 0 0 -5.95703,2.66601 65.29381,65.29381 0 0 0 -5.66211,3.24805 65.29381,65.29381 0 0 0 -5.30859,3.79687 65.29381,65.29381 0 0 0 -4.9043,4.30665 65.29381,65.29381 0 0 0 -4.44922,4.77539 65.29381,65.29381 0 0 0 -2.8789,3.78906 65.29381,65.29381 0 0 0 52.81836,27.04687 65.29381,65.29381 0 0 0 52.82031,-27.01953 z"
           id="path897"
           transform="scale(0.26458333)" />
        <path
           inkscape:connector-curvature="0"
           style="opacity:1;fill:#0f2437;fill-opacity:1;stroke:none;stroke-width:1.00157475;stroke-linecap:round;stroke-linejoin:round;stroke-miterlimit:4;stroke-dasharray:none;stroke-dashoffset:0;stroke-opacity:1;paint-order:fill markers stroke"
           d="m 144.65625,851.69531 a 65.293809,65.293809 0 0 0 -0.86328,10.38281 65.293809,65.293809 0 0 0 12.47461,38.2461 65.293809,65.293809 0 0 1 2.8789,-3.78906 65.293809,65.293809 0 0 1 4.44922,-4.77539 65.293809,65.293809 0 0 1 4.9043,-4.30665 65.293809,65.293809 0 0 1 5.30859,-3.79687 65.293809,65.293809 0 0 1 5.66211,-3.24805 65.293809,65.293809 0 0 1 5.95703,-2.66601 65.293809,65.293809 0 0 1 6.19336,-2.05664 65.293809,65.293809 0 0 1 6.36719,-1.42969 65.293809,65.293809 0 0 1 6.48047,-0.78711 65.293809,65.293809 0 0 1 4.61719,-0.16406 65.293809,65.293809 0 0 1 6.51953,0.32617 65.293809,65.293809 0 0 1 6.45312,0.97656 65.293809,65.293809 0 0 1 6.32422,1.61328 65.293809,65.293809 0 0 1 6.13086,2.23828 65.293809,65.293809 0 0 1 5.87695,2.83985 65.293809,65.293809 0 0 1 5.56446,3.41015 65.293809,65.293809 0 0 1 5.19531,3.95118 65.293809,65.293809 0 0 1 4.77539,4.44922 65.293809,65.293809 0 0 1 4.30664,4.90234 65.293809,65.293809 0 0 1 1.67383,2.33984 65.293809,65.293809 0 0 0 12.47461,-38.27344 65.293809,65.293809 0 0 0 -0.91016,-10.38281 z"
           id="path902"
           transform="scale(0.26458333)" />
        <path
           inkscape:connector-curvature="0"
           style="opacity:1;fill:#ffffff;fill-opacity:1;stroke:none;stroke-width:1.00157475;stroke-linecap:round;stroke-linejoin:round;stroke-miterlimit:4;stroke-dasharray:none;stroke-dashoffset:0;stroke-opacity:1;paint-order:fill markers stroke"
           d="M 144.65625,851.69531 H 273.4707 a 65.293809,65.293809 0 0 0 -64.38476,-54.91015 65.293809,65.293809 0 0 0 -64.42969,54.91015 z"
           id="path882"
           transform="scale(0.26458333)" />
      </g>
      <g
         transform="translate(-0.206785)"
         id="g833"
         style="fill:#e3482c">
        <rect
           style="opacity:1;fill:#e3482c;fill-opacity:1;stroke:none;stroke-width:0.26499999;stroke-linecap:round;stroke-linejoin:round;stroke-miterlimit:4;stroke-dasharray:none;stroke-dashoffset:0;stroke-opacity:1;paint-order:fill markers stroke"
           id="rect817"
           width="16.67416"
           height="43.79261"
           x="166.1069"
           y="-9.0167313"
           ry="8.33708"
           transform="rotate(55.230365)" />
        <use
           height="100%"
           width="100%"
           transform="matrix(-1,0,0,1,210.41357,0)"
           id="use829"
           xlink:href="#rect817"
           y="0"
           x="0" />
      </g>
      <g
         id="g845"
         transform="translate(0.75108372)"
         style="fill:#e3482c">
        <circle
           r="5.4350371"
           cy="106.7737"
           cx="79.014816"
           id="path839"
           style="opacity:1;fill:#0f2437;fill-opacity:1;stroke:none;stroke-width:0.26499999;stroke-linecap:round;stroke-linejoin:round;stroke-miterlimit:4;stroke-dasharray:none;stroke-dashoffset:0;stroke-opacity:1;paint-order:fill markers stroke" />
        <use
           height="100%"
           width="100%"
           transform="translate(50.4682)"
           id="use841"
           xlink:href="#path839"
           y="0"
           x="0" />
      </g>
      <g
         id="g853"
         transform="translate(-0.4135695)"
         style="fill:#e3482c">
        <rect
           ry="6.4055796"
           y="85.80999"
           x="66.203659"
           height="12.811159"
           width="31.057356"
           id="rect847"
           style="opacity:1;fill:#e3482c;fill-opacity:1;stroke:none;stroke-width:0.26499999;stroke-linecap:round;stroke-linejoin:round;stroke-miterlimit:4;stroke-dasharray:none;stroke-dashoffset:0;stroke-opacity:1;paint-order:fill markers stroke" />
        <use
           height="100%"
           width="100%"
           transform="translate(47.362465)"
           id="use849"
           xlink:href="#rect847"
           y="0"
           x="0" />
      </g>
      <rect
         ry="8.7348785"
         y="105.60905"
         x="96.265121"
         height="35.327736"
         width="17.469757"
         id="rect825"
         style="opacity:1;fill:#ef937e;fill-opacity:1;stroke:none;stroke-width:0.26499999;stroke-linecap:round;stroke-linejoin:round;stroke-miterlimit:4;stroke-dasharray:none;stroke-dashoffset:0;stroke-opacity:1;paint-order:fill markers stroke" />
    </g>
    <g
       id="g951">
      <rect
         transform="rotate(45)"
         ry="3.7967536"
         y="-61.429951"
         x="100.14801"
         height="24.41604"
         width="24.41604"
         id="rect935"
         style="opacity:1;fill:#f8c09d;fill-opacity:1;stroke:none;stroke-width:0.07974443;stroke-linecap:round;stroke-linejoin:round;stroke-miterlimit:4;stroke-dasharray:none;stroke-dashoffset:0;stroke-opacity:1;paint-order:fill markers stroke" />
      <g
         transform="matrix(0.30092238,0,0,0.30092238,92.419618,-15.116724)"
         id="g966">
        <circle
           style="opacity:1;fill:#f8c09d;fill-opacity:1;stroke:none;stroke-width:7.66499996;stroke-linecap:round;stroke-linejoin:round;stroke-miterlimit:4;stroke-dasharray:none;stroke-dashoffset:0;stroke-opacity:1;paint-order:fill markers stroke"
           id="path960"
           cx="20.478443"
           cy="180.8261"
           r="13.102321" />
        <circle
           r="7.2790666"
           cy="180.8261"
           cx="20.478443"
           id="circle962"
           style="opacity:1;fill:#ef937e;fill-opacity:1;stroke:none;stroke-width:7.66499996;stroke-linecap:round;stroke-linejoin:round;stroke-miterlimit:4;stroke-dasharray:none;stroke-dashoffset:0;stroke-opacity:1;paint-order:fill markers stroke" />
      </g>
      <use
         height="100%"
         width="100%"
         transform="translate(31.582935)"
         id="use968"
         xlink:href="#g966"
         y="0"
         x="0" />
      <rect
         ry="0"
         y="22.320463"
         x="98.540154"
         height="22.546869"
         width="31.42543"
         id="rect937"
         style="opacity:1;fill:#f8c09d;fill-opacity:1;stroke:none;stroke-width:0.0675465;stroke-linecap:round;stroke-linejoin:round;stroke-miterlimit:4;stroke-dasharray:none;stroke-dashoffset:0;stroke-opacity:1;paint-order:fill markers stroke" />
      <circle
         r="7.943975"
         cy="24.805569"
         cx="99.829025"
         id="path941"
         style="opacity:1;fill:#0f2437;fill-opacity:1;stroke:none;stroke-width:0.07974443;stroke-linecap:round;stroke-linejoin:round;stroke-miterlimit:4;stroke-dasharray:none;stroke-dashoffset:0;stroke-opacity:1;paint-order:fill markers stroke" />
      <path
         sodipodi:nodetypes="cssc"
         inkscape:connector-curvature="0"
         id="rect945"
         d="m 124.28804,14.255749 h 5.80859 c 3.4669,0 6.25793,2.791037 6.25793,6.257931 v 0.19556"
         style="opacity:1;fill:none;fill-opacity:1;stroke:#aabfd0;stroke-width:1.93058217;stroke-linecap:round;stroke-linejoin:round;stroke-miterlimit:4;stroke-dasharray:none;stroke-dashoffset:0;stroke-opacity:1;paint-order:fill markers stroke" />
      <g
         transform="matrix(0.30092238,0,0,0.30092238,82.710617,-15.817663)"
         id="g956">
        <circle
           style="opacity:1;fill:#0f2437;fill-opacity:1;stroke:none;stroke-width:7.66499996;stroke-linecap:round;stroke-linejoin:round;stroke-miterlimit:4;stroke-dasharray:none;stroke-dashoffset:0;stroke-opacity:1;paint-order:fill markers stroke"
           id="path948"
           cx="80.166794"
           cy="181.50548"
           r="7.182013" />
        <use
           x="0"
           y="0"
           xlink:href="#path948"
           id="use950"
           transform="translate(49.303549)"
           width="100%"
           height="100%" />
      </g>
      <path
         style="opacity:1;fill:#0f2437;fill-opacity:1;stroke:none;stroke-width:2.30657005;stroke-linecap:round;stroke-linejoin:round;stroke-miterlimit:4;stroke-dasharray:none;stroke-dashoffset:0;stroke-opacity:1;paint-order:fill markers stroke"
         d="m 103.8264,32.843415 h 5.78275 c 0.90608,0 1.63552,0.729442 1.63552,1.635522 0,0.90608 -0.72944,1.635525 -1.63552,1.635525 h -5.78275 c -0.90608,0 -1.63552,-0.729445 -1.63552,-1.635525 0,-0.90608 0.72944,-1.635522 1.63552,-1.635522 z"
         id="rect952"
         inkscape:connector-curvature="0" />
      <use
         height="100%"
         width="100%"
         transform="translate(15.070187)"
         id="use958"
         xlink:href="#rect952"
         y="0"
         x="0" />
      <circle
         r="1.115187"
         cy="46.00703"
         cx="111.73338"
         id="path972"
         style="opacity:1;fill:#ef937e;fill-opacity:1;stroke:none;stroke-width:2.30657005;stroke-linecap:round;stroke-linejoin:round;stroke-miterlimit:4;stroke-dasharray:none;stroke-dashoffset:0;stroke-opacity:1;paint-order:fill markers stroke" />
      <use
         height="100%"
         width="100%"
         transform="translate(5.0389932)"
         id="use974"
         xlink:href="#path972"
         y="0"
         x="0" />
      <path
         sodipodi:nodetypes="cc"
         inkscape:connector-curvature="0"
         id="path976"
         d="m 118.66294,50.946147 c -2.43561,2.435617 -6.38453,2.435617 -8.82014,0"
         style="opacity:1;fill:none;fill-opacity:1;stroke:#ea676c;stroke-width:2.51721573;stroke-linecap:round;stroke-linejoin:round;stroke-miterlimit:4;stroke-dasharray:none;stroke-dashoffset:0;stroke-opacity:1;paint-order:fill markers stroke" />
      <rect
         style="opacity:1;fill:#f8c09d;fill-opacity:1;stroke:none;stroke-width:0.07974443;stroke-linecap:round;stroke-linejoin:round;stroke-miterlimit:4;stroke-dasharray:none;stroke-dashoffset:0;stroke-opacity:1;paint-order:fill markers stroke"
         id="rect886"
         width="24.41604"
         height="24.41604"
         x="100.14801"
         y="-61.429951"
         ry="3.7967536"
         transform="rotate(45)" />
      <g
         id="g892"
         transform="matrix(0.30092238,0,0,0.30092238,92.419618,-15.116724)">
        <circle
           r="13.102321"
           cy="180.8261"
           cx="20.478443"
           id="circle888"
           style="opacity:1;fill:#f8c09d;fill-opacity:1;stroke:none;stroke-width:7.66499996;stroke-linecap:round;stroke-linejoin:round;stroke-miterlimit:4;stroke-dasharray:none;stroke-dashoffset:0;stroke-opacity:1;paint-order:fill markers stroke" />
        <circle
           style="opacity:1;fill:#ef937e;fill-opacity:1;stroke:none;stroke-width:7.66499996;stroke-linecap:round;stroke-linejoin:round;stroke-miterlimit:4;stroke-dasharray:none;stroke-dashoffset:0;stroke-opacity:1;paint-order:fill markers stroke"
           id="circle890"
           cx="20.478443"
           cy="180.8261"
           r="7.2790666" />
      </g>
      <use
         x="0"
         y="0"
         xlink:href="#g966"
         id="use894"
         transform="translate(31.582935)"
         width="100%"
         height="100%" />
      <rect
         style="opacity:1;fill:#f8c09d;fill-opacity:1;stroke:none;stroke-width:0.0675465;stroke-linecap:round;stroke-linejoin:round;stroke-miterlimit:4;stroke-dasharray:none;stroke-dashoffset:0;stroke-opacity:1;paint-order:fill markers stroke"
         id="rect896"
         width="31.42543"
         height="22.546869"
         x="98.540154"
         y="22.320463"
         ry="0" />
      <rect
         ry="7.4766822"
         y="11.523185"
         x="101.58137"
         height="15.18701"
         width="38.084354"
         id="rect939"
         style="opacity:1;fill:#0f2437;fill-opacity:1;stroke:none;stroke-width:0.07974443;stroke-linecap:round;stroke-linejoin:round;stroke-miterlimit:4;stroke-dasharray:none;stroke-dashoffset:0;stroke-opacity:1;paint-order:fill markers stroke" />
      <circle
         style="opacity:1;fill:#0f2437;fill-opacity:1;stroke:none;stroke-width:0.07974443;stroke-linecap:round;stroke-linejoin:round;stroke-miterlimit:4;stroke-dasharray:none;stroke-dashoffset:0;stroke-opacity:1;paint-order:fill markers stroke"
         id="circle898"
         cx="99.829025"
         cy="24.805569"
         r="7.943975" />
      <path
         style="opacity:1;fill:none;fill-opacity:1;stroke:#aabfd0;stroke-width:1.93058217;stroke-linecap:round;stroke-linejoin:round;stroke-miterlimit:4;stroke-dasharray:none;stroke-dashoffset:0;stroke-opacity:1;paint-order:fill markers stroke"
         d="m 124.28804,14.255749 h 5.80859 c 3.4669,0 6.25793,2.791037 6.25793,6.257931 v 0.19556"
         id="path900"
         inkscape:connector-curvature="0"
         sodipodi:nodetypes="cssc" />
      <g
         id="g906"
         transform="matrix(0.30092238,0,0,0.30092238,82.710617,-15.817663)">
        <circle
           r="7.182013"
           cy="181.50548"
           cx="80.166794"
           id="circle902"
           style="opacity:1;fill:#0f2437;fill-opacity:1;stroke:none;stroke-width:7.66499996;stroke-linecap:round;stroke-linejoin:round;stroke-miterlimit:4;stroke-dasharray:none;stroke-dashoffset:0;stroke-opacity:1;paint-order:fill markers stroke" />
        <use
           height="100%"
           width="100%"
           transform="translate(49.303549)"
           id="use904"
           xlink:href="#path948"
           y="0"
           x="0" />
      </g>
      <path
         inkscape:connector-curvature="0"
         id="path908"
         d="m 103.8264,32.843415 h 5.78275 c 0.90608,0 1.63552,0.729442 1.63552,1.635522 0,0.90608 -0.72944,1.635525 -1.63552,1.635525 h -5.78275 c -0.90608,0 -1.63552,-0.729445 -1.63552,-1.635525 0,-0.90608 0.72944,-1.635522 1.63552,-1.635522 z"
         style="opacity:1;fill:#0f2437;fill-opacity:1;stroke:none;stroke-width:2.30657005;stroke-linecap:round;stroke-linejoin:round;stroke-miterlimit:4;stroke-dasharray:none;stroke-dashoffset:0;stroke-opacity:1;paint-order:fill markers stroke" />
      <use
         x="0"
         y="0"
         xlink:href="#rect952"
         id="use910"
         transform="translate(15.070187)"
         width="100%"
         height="100%" />
      <circle
         style="opacity:1;fill:#ef937e;fill-opacity:1;stroke:none;stroke-width:2.30657005;stroke-linecap:round;stroke-linejoin:round;stroke-miterlimit:4;stroke-dasharray:none;stroke-dashoffset:0;stroke-opacity:1;paint-order:fill markers stroke"
         id="circle912"
         cx="111.73338"
         cy="46.00703"
         r="1.115187" />
      <use
         x="0"
         y="0"
         xlink:href="#path972"
         id="use914"
         transform="translate(5.0389932)"
         width="100%"
         height="100%" />
      <path
         style="opacity:1;fill:none;fill-opacity:1;stroke:#ea676c;stroke-width:2.51721573;stroke-linecap:round;stroke-linejoin:round;stroke-miterlimit:4;stroke-dasharray:none;stroke-dashoffset:0;stroke-opacity:1;paint-order:fill markers stroke"
         d="m 118.66294,50.946147 c -2.43561,2.435617 -6.38453,2.435617 -8.82014,0"
         id="path916"
         inkscape:connector-curvature="0"
         sodipodi:nodetypes="cc" />
    </g>
  </g>
</svg>
